<?xml version="1.0" encoding="utf-8"?>
<!-- Generator: Adobe Illustrator 16.0.0, SVG Export Plug-In . SVG Version: 6.00 Build 0)  -->
<!DOCTYPE svg PUBLIC "-//W3C//DTD SVG 1.1//EN" "http://www.w3.org/Graphics/SVG/1.1/DTD/svg11.dtd">
<svg version="1.1" xmlns="http://www.w3.org/2000/svg" xmlns:xlink="http://www.w3.org/1999/xlink" x="0px" y="0px" width="250px"
	 height="250px" viewBox="0 0 250 250" enable-background="new 0 0 250 250" xml:space="preserve">
<g id="background">
	<circle fill="#FFFFFF" stroke="#000000" stroke-width="3" stroke-miterlimit="10" cx="125" cy="125" r="121.837"/>
</g>
<g id="title">
	<g>
		<path d="M33.802,137.612l17.789-1.114c0.385,2.89,1.169,5.091,2.353,6.604c1.925,2.45,4.677,3.674,8.254,3.674
			c2.668,0,4.726-0.626,6.17-1.878c1.445-1.252,2.167-2.704,2.167-4.354c0-1.568-0.688-2.972-2.063-4.21
			c-1.376-1.238-4.568-2.407-9.575-3.508c-8.2-1.843-14.047-4.292-17.541-7.347c-3.522-3.054-5.283-6.947-5.283-11.68
			c0-3.109,0.901-6.046,2.704-8.812c1.802-2.765,4.512-4.938,8.13-6.521c3.618-1.582,8.578-2.373,14.879-2.373
			c7.731,0,13.626,1.438,17.685,4.312c4.058,2.875,6.473,7.45,7.243,13.723L69.09,115.16c-0.468-2.724-1.452-4.705-2.951-5.943
			c-1.5-1.238-3.57-1.857-6.211-1.857c-2.174,0-3.811,0.461-4.912,1.383s-1.651,2.043-1.651,3.363c0,0.964,0.454,1.831,1.362,2.601
			c0.88,0.798,2.972,1.541,6.273,2.229c8.172,1.761,14.025,3.543,17.561,5.345c3.535,1.802,6.108,4.039,7.718,6.707
			c1.61,2.67,2.415,5.654,2.415,8.956c0,3.88-1.073,7.457-3.219,10.731c-2.146,3.274-5.146,5.758-8.997,7.449
			c-3.853,1.692-8.708,2.539-14.569,2.539c-10.291,0-17.417-1.981-21.379-5.943S34.325,143.722,33.802,137.612z"/>
		<path d="M92.161,97.125h19.544l13.619,43.542l13.443-43.542h18.975l-22.465,60.505h-20.266L92.161,97.125z"/>
		<path d="M191.38,135.714v-12.588h28.891v25.796c-5.53,3.77-10.421,6.335-14.672,7.697c-4.252,1.361-9.294,2.043-15.127,2.043
			c-7.181,0-13.035-1.225-17.562-3.674c-4.526-2.448-8.034-6.094-10.524-10.937s-3.734-10.401-3.734-16.675
			c0-6.604,1.361-12.347,4.086-17.231c2.724-4.883,6.713-8.591,11.969-11.123c4.1-1.954,9.616-2.93,16.55-2.93
			c6.687,0,11.687,0.605,15.003,1.816c3.315,1.211,6.066,3.089,8.254,5.633c2.188,2.545,3.831,5.772,4.933,9.679l-18.036,3.219
			c-0.743-2.284-2.002-4.031-3.776-5.242c-1.774-1.21-4.038-1.816-6.789-1.816c-4.101,0-7.367,1.424-9.803,4.271
			c-2.435,2.848-3.652,7.354-3.652,13.517c0,6.549,1.231,11.226,3.693,14.032c2.463,2.808,5.896,4.21,10.298,4.21
			c2.091,0,4.086-0.302,5.984-0.908c1.898-0.604,4.072-1.637,6.521-3.096v-5.695H191.38z"/>
	</g>
</g>
</svg>
